HIERARCHY
ROOT Hips
{
  OFFSET 363.916 89.4436 202.859
  CHANNELS 6 Xposition Yposition Zposition Zrotation Xrotation Yrotation
  JOINT RightUpLeg
  {
    OFFSET -9.22681 -1.41939 0.059526
    CHANNELS 3 Zrotation Xrotation Yrotation
    JOINT RightLeg
    {
      OFFSET 0.076897 -41.8891 0.179098
      CHANNELS 3 Zrotation Xrotation Yrotation
      JOINT RightFoot
      {
        OFFSET -0.0130714 -43.0092 0.527065
        CHANNELS 3 Zrotation Xrotation Yrotation
        End Site
        {
          OFFSET 0 -7.69 17.5
        }
      }
    }
  }
  JOINT LeftUpLeg
  {
    OFFSET 9.19333 -1.7604 -0.077889
    CHANNELS 3 Zrotation Xrotation Yrotation
    JOINT LeftLeg
    {
      OFFSET -0.0291634 -41.859 -0.15197
      CHANNELS 3 Zrotation Xrotation Yrotation
      JOINT LeftFoot
      {
        OFFSET 0.141288 -40.5593 0.458407
        CHANNELS 3 Zrotation Xrotation Yrotation
        End Site
        {
          OFFSET 0 -7.69 17.5
        }
      }
    }
  }
  JOINT Spine
  {
    OFFSET 0.215607 14.2961 0.04713
    CHANNELS 3 Zrotation Xrotation Yrotation
    JOINT Spine1
    {
      OFFSET 0.127345 9.70675 0.00151561
      CHANNELS 3 Zrotation Xrotation Yrotation
      JOINT Spine2
      {
        OFFSET 0.0493166 10.1169 -0.00299987
        CHANNELS 3 Zrotation Xrotation Yrotation
        JOINT Spine3
        {
          OFFSET 0.0599611 9.70888 0.0197622
          CHANNELS 3 Zrotation Xrotation Yrotation
          JOINT Neck
          {
            OFFSET 0.305156 10.372 0.0704915
            CHANNELS 3 Zrotation Xrotation Yrotation
            JOINT Head
            {
              OFFSET 0.288394 9.47974 0.0406202
              CHANNELS 3 Zrotation Xrotation Yrotation
              End Site
              {
                OFFSET 0 15.95 0
              }
            }
          }
          JOINT RightShoulder
          {
            OFFSET -3.14873 6.92098 0.0285763
            CHANNELS 3 Zrotation Xrotation Yrotation
            JOINT RightArm
            {
              OFFSET -12.7049 -0.00288304 0.0369593
              CHANNELS 3 Zrotation Xrotation Yrotation
              JOINT RightForeArm
              {
                OFFSET -26.4954 -0.160471 0.0134548
                CHANNELS 3 Zrotation Xrotation Yrotation
                JOINT RightHand
                {
                  OFFSET -26.0026 -0.0211725 -0.0218708
                  CHANNELS 3 Zrotation Xrotation Yrotation
                  JOINT RightHandThumb1
                  {
                    OFFSET -2.48905 0.190105 3.12053
                    CHANNELS 3 Zrotation Xrotation Yrotation
                    JOINT RightHandThumb2
                    {
                      OFFSET -3.68274 0 0
                      CHANNELS 3 Zrotation Xrotation Yrotation
                      JOINT RightHandThumb3
                      {
                        OFFSET -2.55832 0 0
                        CHANNELS 3 Zrotation Xrotation Yrotation
                        End Site
                        {
                          OFFSET -2.194 0 0
                        }
                      }
                    }
                  }
                  JOINT RightInHandIndex
                  {
                    OFFSET -3.22368 0.508421 1.97842
                    CHANNELS 3 Zrotation Xrotation Yrotation
                    JOINT RightHandIndex1
                    {
                      OFFSET -5.21684 -0.091368 0.999158
                      CHANNELS 3 Zrotation Xrotation Yrotation
                      JOINT RightHandIndex2
                      {
                        OFFSET -3.61937 0 0
                        CHANNELS 3 Zrotation Xrotation Yrotation
                        JOINT RightHandIndex3
                        {
                          OFFSET -2.0521 0 0
                          CHANNELS 3 Zrotation Xrotation Yrotation
                          End Site
                          {
                            OFFSET -1.805 0 0
                          }
                        }
                      }
                    }
                  }
                  JOINT RightInHandMiddle
                  {
                    OFFSET -3.38211 0.517263 0.756737
                    CHANNELS 3 Zrotation Xrotation Yrotation
                    JOINT RightHandMiddle1
                    {
                      OFFSET -5.17411 -0.084 0.313895
                      CHANNELS 3 Zrotation Xrotation Yrotation
                      JOINT RightHandMiddle2
                      {
                        OFFSET -3.94947 0 0
                        CHANNELS 3 Zrotation Xrotation Yrotation
                        JOINT RightHandMiddle3
                        {
                          OFFSET -2.47579 0 0
                          CHANNELS 3 Zrotation Xrotation Yrotation
                          End Site
                          {
                            OFFSET -1.975 0 0
                          }
                        }
                      }
                    }
                  }
                  JOINT RightInHandRing
                  {
                    OFFSET -3.36516 0.537895 -0.128947
                    CHANNELS 3 Zrotation Xrotation Yrotation
                    JOINT RightHandRing1
                    {
                      OFFSET -4.63474 -0.022105 -0.478947
                      CHANNELS 3 Zrotation Xrotation Yrotation
                      JOINT RightHandRing2
                      {
                        OFFSET -3.44238 0 0
                        CHANNELS 3 Zrotation Xrotation Yrotation
                        JOINT RightHandRing3
                        {
                          OFFSET -2.3881 0 0
                          CHANNELS 3 Zrotation Xrotation Yrotation
                          End Site
                          {
                            OFFSET -1.857 0 0
                          }
                        }
                      }
                    }
                  }
                  JOINT RightInHandPinky
                  {
                    OFFSET -3.16105 0.469368 -1.20179
                    CHANNELS 3 Zrotation Xrotation Yrotation
                    JOINT RightHandPinky1
                    {
                      OFFSET -4.14105 -0.022105 -1.09053
                      CHANNELS 3 Zrotation Xrotation Yrotation
                      JOINT RightHandPinky2
                      {
                        OFFSET -2.75653 0 0
                        CHANNELS 3 Zrotation Xrotation Yrotation
                        JOINT RightHandPinky3
                        {
                          OFFSET -1.74189 0 0
                          CHANNELS 3 Zrotation Xrotation Yrotation
                          End Site
                          {
                            OFFSET -1.645 0 0
                          }
                        }
                      }
                    }
                  }
                }
              }
            }
          }
          JOINT LeftShoulder
          {
            OFFSET 3.26342 6.92519 -0.0174379
            CHANNELS 3 Zrotation Xrotation Yrotation
            JOINT LeftArm
            {
              OFFSET 12.8742 -0.0269705 -0.0666419
              CHANNELS 3 Zrotation Xrotation Yrotation
              JOINT LeftForeArm
              {
                OFFSET 26.5114 0.000826062 -0.052783
                CHANNELS 3 Zrotation Xrotation Yrotation
                JOINT LeftHand
                {
                  OFFSET 25.9941 -0.0689373 0.00603348
                  CHANNELS 3 Zrotation Xrotation Yrotation
                  JOINT LeftHandThumb1
                  {
                    OFFSET 2.48905 0.190105 3.12053
                    CHANNELS 3 Zrotation Xrotation Yrotation
                    JOINT LeftHandThumb2
                    {
                      OFFSET 3.68274 0 0
                      CHANNELS 3 Zrotation Xrotation Yrotation
                      JOINT LeftHandThumb3
                      {
                        OFFSET 2.55832 0 0
                        CHANNELS 3 Zrotation Xrotation Yrotation
                        End Site
                        {
                          OFFSET 2.194 0 0
                        }
                      }
                    }
                  }
                  JOINT LeftInHandIndex
                  {
                    OFFSET 3.22368 0.508421 1.97842
                    CHANNELS 3 Zrotation Xrotation Yrotation
                    JOINT LeftHandIndex1
                    {
                      OFFSET 5.21684 -0.091368 0.999158
                      CHANNELS 3 Zrotation Xrotation Yrotation
                      JOINT LeftHandIndex2
                      {
                        OFFSET 3.61937 0 0
                        CHANNELS 3 Zrotation Xrotation Yrotation
                        JOINT LeftHandIndex3
                        {
                          OFFSET 2.0521 0 0
                          CHANNELS 3 Zrotation Xrotation Yrotation
                          End Site
                          {
                            OFFSET 1.805 0 0
                          }
                        }
                      }
                    }
                  }
                  JOINT LeftInHandMiddle
                  {
                    OFFSET 3.38211 0.517263 0.756737
                    CHANNELS 3 Zrotation Xrotation Yrotation
                    JOINT LeftHandMiddle1
                    {
                      OFFSET 5.17411 -0.084 0.313895
                      CHANNELS 3 Zrotation Xrotation Yrotation
                      JOINT LeftHandMiddle2
                      {
                        OFFSET 3.94947 0 0
                        CHANNELS 3 Zrotation Xrotation Yrotation
                        JOINT LeftHandMiddle3
                        {
                          OFFSET 2.47579 0 0
                          CHANNELS 3 Zrotation Xrotation Yrotation
                          End Site
                          {
                            OFFSET 1.975 0 0
                          }
                        }
                      }
                    }
                  }
                  JOINT LeftInHandRing
                  {
                    OFFSET 3.36516 0.537895 -0.128947
                    CHANNELS 3 Zrotation Xrotation Yrotation
                    JOINT LeftHandRing1
                    {
                      OFFSET 4.63474 -0.022105 -0.478947
                      CHANNELS 3 Zrotation Xrotation Yrotation
                      JOINT LeftHandRing2
                      {
                        OFFSET 3.44238 0 0
                        CHANNELS 3 Zrotation Xrotation Yrotation
                        JOINT LeftHandRing3
                        {
                          OFFSET 2.3881 0 0
                          CHANNELS 3 Zrotation Xrotation Yrotation
                          End Site
                          {
                            OFFSET 1.857 0 0
                          }
                        }
                      }
                    }
                  }
                  JOINT LeftInHandPinky
                  {
                    OFFSET 3.16105 0.469368 -1.20179
                    CHANNELS 3 Zrotation Xrotation Yrotation
                    JOINT LeftHandPinky1
                    {
                      OFFSET 4.14105 -0.022105 -1.09053
                      CHANNELS 3 Zrotation Xrotation Yrotation
                      JOINT LeftHandPinky2
                      {
                        OFFSET 2.75653 0 0
                        CHANNELS 3 Zrotation Xrotation Yrotation
                        JOINT LeftHandPinky3
                        {
                          OFFSET 1.74189 0 0
                          CHANNELS 3 Zrotation Xrotation Yrotation
                          End Site
                          {
                            OFFSET 1.645 0 0
                          }
                        }
                      }
                    }
                  }
                }
              }
            }
          }
        }
      }
    }
  }
}
MOTION
Frames: 3
Frame Time: 0.00833333
5.998735438289414788e+02 -1.301745048437842611e-02 -1.869941532302918930e-01 -1.183957101378106391e-01 3.966392970330430423e-02 -2.572024122689827719e-01 6.388650751706592690e-02 1.501088956769790206e-01 -4.249820695059159520e-02 2.974321916639779961e-03 5.250233702528153690e-02 1.564425723826820824e-01 -1.307724764640463139e-02 -7.015636648186407420e-02 2.652099056030084862e-02 2.281173720132784188e-01 1.995400015729554832e-01 5.069168509579092818e-01 -1.100231597895726665e-01 -1.418951656273985118e-01 -1.064381779895059166e-01 -5.792074427906217932e-02 4.330635892611670035e-02 -7.284601202190141289e-02 -5.468806176143605619e-02 1.620331399707899273e-02 1.362765354991183619e-01 -9.644020048332445361e-03 1.200687792924555984e-02 3.020402092349301626e-02 -1.561798676882877879e-02 2.115931757605067631e-02 4.792518044541404371e-02 1.275942888452310901e-02 -1.010651146595476640e-02 -9.690231496638576289e-03 1.268504829480063267e-02 -8.952065135369256799e-02 2.250254051526541232e-01 2.287835637230550556e-01 -6.719152701946652650e-02 -2.646750182193661205e-01 2.723572293418253729e-02 1.395624433048876789e-01 1.107509197018347047e-01 -3.282933162069219812e-01 -3.139956045560325926e-01 1.883463213134224101e-01 8.504883291336713669e-02 8.129573276230593892e-01 -1.214062777966318368e-01 3.875477211236926789e-01 -4.118103166018773353e-01 2.433574844210132648e-01 0.000000000000000000e+00 0.000000000000000000e+00 0.000000000000000000e+00 2.585830815710431471e-15 -2.618889380423062115e-15 0.000000000000000000e+00 2.018359873595265079e-15 -2.050955576702589922e-15 0.000000000000000000e+00 -1.194946967417276471e-15 1.102491309530908058e-15 -1.239622184661520509e-15 0.000000000000000000e+00 0.000000000000000000e+00 0.000000000000000000e+00 0.000000000000000000e+00 -1.711800115768358319e-15 -5.131997151137590318e-17 0.000000000000000000e+00 1.828292243103839146e-14 1.043360628206508030e-13 -1.194946967417276471e-15 1.102491309530908058e-15 -1.239622184661520509e-15 0.000000000000000000e+00 -1.928746385373663190e-15 2.624563698650299833e-16 0.000000000000000000e+00 -3.436627325364758418e-16 -9.800833375138633757e-16 0.000000000000000000e+00 -1.050178437044701280e-14 -6.877769053654229080e-14 -1.194946967417276471e-15 1.102491309530908058e-15 -1.239622184661520509e-15 0.000000000000000000e+00 0.000000000000000000e+00 0.000000000000000000e+00 0.000000000000000000e+00 1.500714522617796909e-15 -9.147082897667901743e-16 0.000000000000000000e+00 -1.146635107855190346e-14 -5.768723353685166971e-14 -1.194946967417276471e-15 1.102491309530908058e-15 -1.239622184661520509e-15 0.000000000000000000e+00 0.000000000000000000e+00 0.000000000000000000e+00 0.000000000000000000e+00 -4.499056297440940014e-15 9.664513762726473877e-17 0.000000000000000000e+00 -3.388286453604781089e-15 -2.006952501492895938e-14 -1.208575997792081941e-01 -1.416185523972984719e-03 -4.704430458114954722e-02 4.085317690538385893e-01 8.420272151306511937e-03 -4.230386160562006337e-01 2.537356102871658470e-01 -3.397435088824635741e-01 1.201752475804930276e-01 1.650963830571477164e-01 -5.948474755572710215e-01 -2.378589375775908010e-02 0.000000000000000000e+00 0.000000000000000000e+00 0.000000000000000000e+00 -1.723530963794419621e-15 3.060719349117161586e-15 0.000000000000000000e+00 1.831628419591795280e-15 1.414975936249568011e-15 0.000000000000000000e+00 -1.078396369040815341e-15 5.152496130827625248e-16 5.449581268996405893e-16 0.000000000000000000e+00 0.000000000000000000e+00 0.000000000000000000e+00 0.000000000000000000e+00 1.517318721863151807e-15 -4.901993323370777403e-15 0.000000000000000000e+00 1.345030338136730189e-16 -2.002216882379935165e-15 -1.078396369040815341e-15 5.152496130827625248e-16 5.449581268996405893e-16 0.000000000000000000e+00 -1.145454891012962348e-16 -1.563195724900415797e-15 0.000000000000000000e+00 2.418456413051755460e-15 -3.875264238239810530e-15 0.000000000000000000e+00 -1.883625644827181921e-16 -3.981801510491411296e-15 -1.078396369040815341e-15 5.152496130827625248e-16 5.449581268996405893e-16 0.000000000000000000e+00 0.000000000000000000e+00 0.000000000000000000e+00 0.000000000000000000e+00 1.154593764183141637e-15 -3.550782780756290394e-15 0.000000000000000000e+00 -1.125122066222659512e-16 -1.718011497862849206e-15 -1.078396369040815341e-15 5.152496130827625248e-16 5.449581268996405893e-16 0.000000000000000000e+00 0.000000000000000000e+00 0.000000000000000000e+00 0.000000000000000000e+00 1.096403952847524690e-15 -5.685082808704946736e-15 0.000000000000000000e+00 -1.751636861900980171e-16 -3.660097642086698106e-15
5.999069115570875965e+02 -6.990767641801278950e-03 -1.924792176014326062e-01 -5.534601600678509814e-02 1.022286561923326786e-01 4.610791374483849681e-02 -9.644685721876808393e-02 6.879783487729167202e-02 -2.700660078742251335e-01 2.507400953848550398e-02 9.375000134483217618e-02 1.263676501591224910e-01 -1.796070023333050381e-02 -1.077850732514165216e-01 -6.667043718696359644e-02 1.759389673978308255e-01 3.524987990252886894e-02 3.201082991906490927e-01 4.810221320211747684e-03 -1.370877236645527686e-01 -2.035958428869457104e-01 -9.978146900188783475e-02 1.021756587257267451e-01 -1.464884675486894661e-01 -5.231937673234055702e-02 1.930526554210178214e-02 9.994972893141257364e-02 -9.925433403389891801e-03 1.107936016577181285e-02 2.182119576148940782e-02 -1.615813659434812630e-02 1.915183883252098707e-02 3.441981165830822198e-02 1.403008614320416791e-02 -7.326921210436694240e-03 -1.333804863791986095e-02 2.043541773467223363e-02 -4.831413357910307321e-02 1.121203850919788997e-01 2.420343442850110549e-01 -9.217135679615004462e-02 -2.772642310115904229e-01 -6.802957884673679033e-03 7.333047533398570628e-02 1.469633948507210186e-01 -3.383330573630735638e-01 -1.328933840938557320e-01 2.426892501429227522e-01 -1.157189262511382072e-01 5.451718009641656204e-01 -2.797108862067853030e-01 3.142811740884501326e-01 -4.041216096942559233e-01 2.294172473390458100e-01 0.000000000000000000e+00 0.000000000000000000e+00 0.000000000000000000e+00 1.929603031521611598e-15 -2.241555293122743504e-15 0.000000000000000000e+00 1.367993420082545956e-15 -1.932656397146598982e-15 0.000000000000000000e+00 -8.814381899489614011e-16 1.370234776815275350e-15 -9.955079768113430154e-16 0.000000000000000000e+00 0.000000000000000000e+00 0.000000000000000000e+00 0.000000000000000000e+00 -1.360449109661086828e-15 9.902643318574681101e-16 0.000000000000000000e+00 1.858697169258923443e-14 1.061160767350270613e-13 -8.814381899489614011e-16 1.370234776815275350e-15 -9.955079768113430154e-16 0.000000000000000000e+00 -1.503951173915207095e-15 1.159108001996833334e-15 0.000000000000000000e+00 4.865685842175522326e-16 -1.461773890432939598e-17 0.000000000000000000e+00 -1.139483779616079304e-14 -7.471064087393218537e-14 -8.814381899489614011e-16 1.370234776815275350e-15 -9.955079768113430154e-16 0.000000000000000000e+00 0.000000000000000000e+00 0.000000000000000000e+00 0.000000000000000000e+00 1.724183928273992679e-15 2.082905425235473544e-16 0.000000000000000000e+00 -1.079424070701767577e-14 -5.366063217709201734e-14 -8.814381899489614011e-16 1.370234776815275350e-15 -9.955079768113430154e-16 0.000000000000000000e+00 0.000000000000000000e+00 0.000000000000000000e+00 0.000000000000000000e+00 -3.990082059167844799e-15 1.162152212128011217e-15 0.000000000000000000e+00 -3.326965223328922195e-15 -2.120675959410262256e-14 -8.826444089485650790e-02 -1.320217110402633828e-02 1.551889573757338908e-02 3.004557517920541931e-01 -2.869837863332484057e-02 -3.140493509417791040e-01 2.769369721415466112e-01 -5.270374314083111633e-01 2.341964710727782728e-01 1.042072297700145506e-01 -6.218503624530444807e-01 -5.690801227047351252e-02 0.000000000000000000e+00 0.000000000000000000e+00 0.000000000000000000e+00 -1.873235801966101711e-15 3.034483237287592659e-15 0.000000000000000000e+00 1.630763295477372763e-15 1.361937504939565223e-15 0.000000000000000000e+00 -8.840195502312948041e-16 5.072209119385770810e-16 5.850446675262737861e-16 0.000000000000000000e+00 0.000000000000000000e+00 0.000000000000000000e+00 0.000000000000000000e+00 1.716849967974589259e-15 -5.788753521898068165e-15 0.000000000000000000e+00 2.211480099464290157e-16 -2.972747417312728473e-15 -8.840195502312948041e-16 5.072209119385770810e-16 5.850446675262737861e-16 0.000000000000000000e+00 -1.882367432463962246e-16 -2.613469223740275107e-15 0.000000000000000000e+00 2.700317760429256369e-15 -5.299530595124657618e-15 0.000000000000000000e+00 -3.631598800620206108e-18 -5.052657637890689257e-15 -8.840195502312948041e-16 5.072209119385770810e-16 5.850446675262737861e-16 0.000000000000000000e+00 0.000000000000000000e+00 0.000000000000000000e+00 0.000000000000000000e+00 1.412062377556956427e-15 -4.781042321113674046e-15 0.000000000000000000e+00 1.877969501671599429e-16 -2.714222258862295082e-15 -8.840195502312948041e-16 5.072209119385770810e-16 5.850446675262737861e-16 0.000000000000000000e+00 0.000000000000000000e+00 0.000000000000000000e+00 0.000000000000000000e+00 1.288898961195636528e-15 -6.413320508945625631e-15 0.000000000000000000e+00 4.349366171926014559e-16 -4.757039081155369482e-15
5.999416652138831978e+02 -2.682402297833797085e-03 -1.655072919534457399e-01 -8.445611939377912700e-03 1.349307144510686063e-01 2.497770083778898531e-01 -2.154817065128101505e-01 1.043888001238287531e-02 -4.232870077169202383e-01 4.534922678614391328e-02 9.836560785561830611e-02 8.722055366945612176e-02 -2.300467127677794515e-02 -1.077675326338972395e-01 -1.110052273268142958e-01 9.218693500232227889e-02 -7.831390470325430564e-02 1.084231584619304023e-01 7.947227918009368286e-02 -1.207315551983401680e-01 -2.259230549949690081e-01 -1.102569663462535099e-01 1.288277269427214600e-01 -1.667551361311465918e-01 -2.356458245819811545e-02 1.726342933339583205e-02 3.374908763620508567e-02 -4.481085513873410073e-03 8.204977482065457448e-03 6.899727535291552867e-03 -7.289557183236176560e-03 1.430780298946946957e-02 1.057892724506242360e-02 1.164306046621015577e-02 -4.340628146269487862e-03 -1.222304162977773216e-02 2.255666792666046264e-02 -1.552044943530220614e-02 2.779179657841678378e-02 1.953122874524544084e-01 -9.254077156501466783e-02 -2.176470255022647238e-01 -1.950452988683924402e-02 2.530037011714882794e-02 1.400073388383526185e-01 -3.118148563663090123e-01 5.514430337134078319e-03 2.363613807763401964e-01 -1.694894574286174849e-01 2.841235030167750808e-01 -2.705165910910348193e-01 1.753070912038378892e-01 -2.955757075947539891e-01 1.198680274801175172e-01 0.000000000000000000e+00 0.000000000000000000e+00 0.000000000000000000e+00 9.215538294391643258e-16 -1.357897655204966835e-15 0.000000000000000000e+00 3.849346887498104457e-16 -1.370859567244719122e-15 0.000000000000000000e+00 -3.030257982374664525e-16 1.322572883590928157e-15 -6.354197898734187060e-16 0.000000000000000000e+00 0.000000000000000000e+00 0.000000000000000000e+00 0.000000000000000000e+00 -8.536918636990899084e-16 1.380823995662554900e-15 0.000000000000000000e+00 1.516603999223429845e-14 8.677829962843449813e-14 -3.030257982374664525e-16 1.322572883590928157e-15 -6.354197898734187060e-16 0.000000000000000000e+00 -9.557210177918537759e-16 1.699579630992427809e-15 0.000000000000000000e+00 1.107330410395435969e-15 7.098274100455968624e-16 0.000000000000000000e+00 -9.950334853144420893e-15 -6.603967549153924621e-14 -3.030257982374664525e-16 1.322572883590928157e-15 -6.354197898734187060e-16 0.000000000000000000e+00 0.000000000000000000e+00 0.000000000000000000e+00 0.000000000000000000e+00 1.446386386479792106e-15 9.351889636932470844e-16 0.000000000000000000e+00 -8.208549548512583554e-15 -4.032703248884572572e-14 -3.030257982374664525e-16 1.322572883590928157e-15 -6.354197898734187060e-16 0.000000000000000000e+00 0.000000000000000000e+00 0.000000000000000000e+00 0.000000000000000000e+00 -2.848716231236618907e-15 1.685209457938985438e-15 0.000000000000000000e+00 -2.429715754212848894e-15 -1.789040524770357030e-14 -5.776555872107563827e-02 -1.935051233010809391e-02 4.550269356438286367e-02 2.065715955072570387e-01 -3.873567958022249014e-02 -2.059459006564282879e-01 2.512469842421486965e-01 -5.618532727092994117e-01 2.637167781278592638e-01 4.919540027408583066e-02 -5.804106923531522355e-01 -6.619707096464874652e-02 0.000000000000000000e+00 0.000000000000000000e+00 0.000000000000000000e+00 -1.739624687165437384e-15 2.505440175615819050e-15 0.000000000000000000e+00 9.938691055878696771e-16 1.316920040705102910e-15 0.000000000000000000e+00 -5.370928326431132713e-16 4.063902657275414991e-16 4.700320281377310290e-16 0.000000000000000000e+00 0.000000000000000000e+00 0.000000000000000000e+00 0.000000000000000000e+00 1.676115818499755051e-15 -5.599783808774166709e-15 0.000000000000000000e+00 2.688199927060458824e-16 -3.627181498272732674e-15 -5.370928326431132713e-16 4.063902657275414991e-16 4.700320281377310290e-16 0.000000000000000000e+00 -3.052377532833269635e-16 -3.269320159356085199e-15 0.000000000000000000e+00 2.431360210184720943e-15 -5.686541676088175241e-15 0.000000000000000000e+00 1.487321857732219389e-16 -5.284173669190197367e-15 -5.370928326431132713e-16 4.063902657275414991e-16 4.700320281377310290e-16 0.000000000000000000e+00 0.000000000000000000e+00 0.000000000000000000e+00 0.000000000000000000e+00 1.406075997197982920e-15 -5.023031766272166373e-15 0.000000000000000000e+00 4.190888857670749589e-16 -3.170151711587316862e-15 -5.370928326431132713e-16 4.063902657275414991e-16 4.700320281377310290e-16 0.000000000000000000e+00 0.000000000000000000e+00 0.000000000000000000e+00 0.000000000000000000e+00 1.297643368336805016e-15 -5.858621286451892477e-15 0.000000000000000000e+00 8.930313473163819668e-16 -4.940593532654511657e-15
